<?xml version="1.0" encoding="UTF-8" standalone="no"?>
<!-- Created with Inkscape (http://www.inkscape.org/) -->

<svg
   version="1.1"
   id="svg1"
   width="98"
   height="105"
   viewBox="0 0 98 105"
   xmlns="http://www.w3.org/2000/svg">
  <defs
     id="defs1" />
  <g
     id="g1">
    <path
       style="fill:#78c000;fill-opacity:1"
       d="m 51.249567,100.1513 c -1.348738,-1.455323 -2.452251,-3.410575 -2.452251,-4.345019 0,-1.870949 3.00331,-5.008965 4.793944,-5.008965 1.712821,0 7.873613,-5.715506 10.04603,-9.319928 2.353933,-3.90559 3.49698,-9.869448 2.639695,-13.772637 -0.820935,-3.737692 -1.461892,-3.272655 -4.925961,3.573957 -1.559378,3.082054 -4.58617,7.102473 -6.726205,8.934263 C 43.417695,89.805853 24.367232,88.431258 15.30834,77.376074 9.2147889,69.939698 8.4963169,67.092746 8.0373099,48.564554 7.6607889,33.365952 7.8234259,31.228858 9.8111629,25.255705 12.418832,17.41966 19.443023,9.5807681 27.297316,5.7414227 32.2404,3.3251382 32.618555,3.2973163 60.517553,3.2973163 c 27.670494,0 28.262784,0.042504 30.404114,2.1818941 1.34933,1.3480966 2.15091,3.3414517 2.09761,5.2162416 -0.0777,2.731542 -9.781859,23.553202 -12.584407,27.001545 -0.733477,0.902493 -1.31773,9.072454 -1.644783,23 -0.476537,20.293347 -0.650832,21.870549 -2.880565,26.06641 -4.278229,8.050675 -14.266582,16.033913 -20.061084,16.033913 -1.180641,0 -3.250133,-1.19071 -4.598871,-2.64602 z M 41.482216,72.730704 c 1.548305,-0.586637 3.840166,-2.026884 5.093024,-3.200548 2.618432,-2.452918 11.360112,-19.261471 10.476777,-20.144806 -0.323419,-0.323419 -4.113034,-0.588034 -8.421368,-0.588034 -6.5,0 -8.173759,-0.340426 -9.833333,-2 -2.46594,-2.46594 -2.568127,-6.095921 -0.25,-8.880769 1.590625,-1.910874 2.933928,-2.125873 14.75,-2.360784 l 13,-0.258447 4.8357,-8.706826 c 2.659635,-4.788754 4.545578,-9.176254 4.190983,-9.75 -0.40974,-0.662974 -7.274693,-1.039614 -18.8357,-1.033405 -17.019978,0.0091 -18.512847,0.161553 -23.190983,2.367655 -10.883521,5.13242 -12.900928,10.339039 -11.939455,30.813909 0.55044,11.721789 1.066987,15.311426 2.55553,17.75914 3.669698,6.034334 10.918226,8.502759 17.568825,5.982915 z"
       id="path1" />
  </g>
</svg>
